<?xml version="1.0" standalone="no"?>
<!DOCTYPE svg PUBLIC "-//W3C//DTD SVG 20010904//EN"
 "http://www.w3.org/TR/2001/REC-SVG-20010904/DTD/svg10.dtd">
<svg version="1.0" xmlns="http://www.w3.org/2000/svg"
 width="2046.000000pt" height="2046.000000pt" viewBox="0 0 2046.000000 2046.000000"
 preserveAspectRatio="xMidYMid meet">
<metadata>
Created by potrace 1.14, written by Peter Selinger 2001-2017
</metadata>
<g transform="translate(0.000000,2046.000000) scale(0.100000,-0.100000)"
fill="#000000" stroke="none">
<path d="M7952 19725 c-117 -26 -170 -45 -269 -94 -124 -63 -208 -126 -308
-234 -129 -138 -218 -308 -262 -499 -21 -93 -23 -317 -4 -413 80 -407 385
-730 789 -836 100 -27 300 -36 413 -20 149 22 314 86 443 174 80 54 205 175
252 243 27 38 42 53 53 49 37 -14 792 -415 819 -435 17 -12 42 -44 56 -70 l26
-48 0 -775 0 -775 -764 -1673 -764 -1674 -894 -3 -895 -2 -16 60 c-23 83 -87
228 -143 324 -226 390 -604 663 -1047 758 -79 17 -138 22 -262 22 -154 1 -162
0 -218 -26 -73 -35 -156 -113 -190 -181 -91 -178 -35 -395 129 -508 66 -45
118 -60 243 -70 194 -15 319 -60 458 -165 93 -71 163 -158 218 -269 55 -110
74 -182 82 -300 20 -313 -150 -606 -432 -745 -104 -51 -174 -69 -316 -80 -138
-11 -202 -32 -279 -93 -86 -69 -150 -199 -150 -307 0 -99 61 -233 135 -296
100 -87 203 -112 396 -95 389 35 732 200 1004 483 165 171 289 376 358 587
l32 100 708 1 c389 0 707 -2 707 -5 0 -3 -318 -702 -706 -1553 -1099 -2408
-1034 -2262 -1034 -2307 1 -95 53 -150 365 -384 842 -631 1858 -1038 2885
-1155 449 -52 947 -52 1380 0 1103 131 2187 589 3071 1296 217 174 222 195
100 467 -44 97 -429 950 -856 1896 -427 946 -779 1726 -782 1733 -4 9 134 12
669 12 l674 0 28 -91 c16 -50 57 -148 92 -218 212 -422 623 -739 1084 -835
127 -27 322 -40 388 -27 136 27 236 105 295 229 29 61 32 76 32 162 0 86 -3
101 -32 162 -73 154 -214 238 -402 238 -188 0 -425 118 -557 278 -257 311
-240 753 39 1040 149 154 307 223 547 242 129 10 202 36 268 96 91 81 142 191
142 305 0 103 -63 232 -147 303 -17 14 -58 39 -90 54 -141 66 -479 30 -753
-81 -421 -171 -755 -526 -902 -959 l-33 -98 -855 0 -855 1 -755 1675 -755
1675 -5 972 c-6 1074 -1 996 -68 1064 -26 25 -1234 670 -1289 687 -23 7 -27
21 -38 121 -30 268 -221 571 -458 728 -83 56 -229 122 -322 147 -105 29 -376
37 -473 15z m279 -625 c132 -25 251 -119 312 -247 30 -63 32 -76 32 -173 0
-97 -2 -110 -32 -173 -157 -330 -609 -336 -770 -9 -37 73 -38 80 -38 181 0 98
2 111 32 174 87 183 274 282 464 247z m2144 -4233 c29 -16 49 -39 71 -82 23
-43 2208 -4878 2460 -5441 l23 -51 -107 -71 c-505 -333 -1134 -522 -1952 -586
-528 -42 -1136 -25 -1570 44 -636 102 -1102 277 -1515 572 -164 117 -151 104
-139 136 33 84 2470 5412 2486 5435 47 66 165 88 243 44z m-2895 -6183 c584
-394 1294 -617 2192 -688 878 -70 1803 14 2515 230 286 86 670 258 898 403 61
38 110 68 111 68 11 -16 214 -480 218 -500 10 -42 -18 -128 -51 -158 -95 -89
-564 -366 -823 -486 -603 -281 -1166 -436 -1820 -499 -212 -21 -668 -23 -875
-5 -890 79 -1664 337 -2420 808 -219 137 -270 176 -295 228 -36 74 -27 110 95
375 59 129 114 250 122 268 7 18 17 32 21 30 4 -2 54 -35 112 -74z"/>
<path d="M10132 12389 c-353 -41 -657 -252 -812 -563 -156 -313 -156 -664 0
-981 58 -119 124 -208 219 -298 132 -124 298 -216 478 -264 87 -23 117 -27
268 -27 193 -1 277 15 436 83 442 190 698 672 614 1152 -51 293 -230 562 -483
727 -148 96 -303 151 -487 172 -101 11 -129 11 -233 -1z m566 -1101 c87 -44
152 -149 152 -244 0 -58 -37 -139 -83 -182 -145 -133 -377 -71 -433 115 -18
59 -18 87 1 149 44 148 227 229 363 162z"/>
<path d="M6095 7431 c-40 -18 -65 -60 -150 -250 -120 -266 -122 -255 90 -414
599 -448 1544 -962 2242 -1221 84 -31 156 -56 160 -56 4 0 40 -87 78 -193 93
-255 94 -317 5 -404 -17 -17 -48 -38 -68 -47 -20 -9 -410 -133 -865 -276 -455
-144 -834 -263 -841 -266 -9 -3 -26 16 -46 53 -162 286 -454 486 -779 534
-118 17 -292 7 -412 -24 -486 -126 -820 -577 -796 -1077 23 -459 329 -846 772
-975 269 -78 583 -37 826 105 240 142 423 387 494 663 l20 79 325 103 c179 57
649 205 1045 330 1062 334 1087 343 1126 369 22 15 47 46 63 78 44 88 39 114
-83 452 l-109 298 41 -5 c23 -4 103 -15 177 -26 312 -47 439 -55 845 -55 475
-1 711 20 1124 100 69 13 127 21 130 19 12 -13 392 -1256 397 -1300 5 -40 1
-62 -17 -104 -21 -49 -83 -108 -730 -702 l-708 -649 -73 55 c-138 105 -311
178 -481 205 -117 19 -319 8 -435 -24 -641 -177 -966 -885 -682 -1483 146
-308 429 -525 766 -589 120 -22 346 -15 456 14 300 81 551 285 687 558 84 170
118 334 108 528 -4 67 -9 133 -13 147 -5 25 54 82 833 794 961 880 968 886
995 940 41 78 40 80 -231 955 -139 448 -253 819 -254 823 -1 4 81 38 183 76
743 274 1607 724 2242 1168 111 78 138 111 138 172 0 33 -158 391 -187 423
-10 11 -31 27 -47 35 -53 27 -94 12 -223 -79 -512 -367 -1233 -758 -1888
-1025 -659 -269 -1206 -392 -1885 -424 -641 -29 -1341 77 -1948 297 -654 237
-1563 736 -2161 1187 -129 97 -151 111 -191 114 -25 1 -54 -1 -65 -6z m-142
-3210 c258 -123 325 -456 135 -666 -96 -106 -243 -159 -376 -137 -254 42 -417
298 -344 538 44 143 142 242 287 291 26 8 74 12 135 10 83 -3 104 -8 163 -36z
m3960 -2054 c65 -30 155 -110 191 -171 62 -105 72 -259 26 -379 -48 -126 -191
-237 -330 -256 -335 -45 -585 290 -445 596 49 108 134 184 249 225 78 28 231
20 309 -15z"/>
</g>
</svg>
